<?xml version="1.0" standalone="no"?>
<!DOCTYPE svg PUBLIC "-//W3C//DTD SVG 20010904//EN"
 "http://www.w3.org/TR/2001/REC-SVG-20010904/DTD/svg10.dtd">
<svg version="1.0" xmlns="http://www.w3.org/2000/svg"
 width="500.000000pt" height="500.000000pt" viewBox="0 0 500.000000 500.000000"
 preserveAspectRatio="xMidYMid meet">

<g transform="translate(0.000000,500.000000) scale(0.100000,-0.100000)"
fill="#000000" stroke="none">
<path d="M2320 4163 c-81 -13 -241 -44 -272 -53 l-38 -11 0 -282 c0 -265 -1
-284 -20 -315 -37 -61 -122 -79 -181 -39 -56 38 -59 50 -59 300 0 125 -3 227
-6 227 -3 0 -36 -18 -72 -39 -367 -215 -628 -536 -762 -939 -40 -119 -80 -318
-80 -396 0 -41 -2 -44 -40 -59 -104 -40 -109 -202 -7 -250 32 -16 167 -17
1721 -17 1833 0 1728 -3 1774 55 17 21 22 41 22 85 0 67 -20 99 -81 130 -36
19 -39 23 -39 64 0 79 -38 270 -78 392 -110 334 -315 616 -607 834 -65 48
-196 130 -209 130 -3 0 -6 -91 -6 -202 0 -112 -5 -219 -10 -239 -5 -19 -24
-48 -41 -65 -26 -25 -38 -29 -84 -29 -43 0 -59 5 -80 25 -52 48 -55 67 -55
359 l0 269 -87 21 c-49 11 -117 25 -153 31 -36 5 -80 13 -97 16 l-33 5 0 -456
c0 -495 1 -489 -56 -534 -20 -15 -41 -21 -80 -21 -45 0 -59 5 -86 29 l-33 29
-5 474 c-5 514 -1 481 -60 471z"/>
<path d="M1445 2248 c-53 -17 -138 -82 -172 -131 -34 -50 -46 -87 -58 -169
l-6 -46 -117 -27 c-146 -34 -256 -75 -304 -116 -32 -25 -38 -37 -38 -69 0 -59
58 -101 222 -160 239 -85 762 -162 1238 -183 l55 -2 3 -63 c2 -53 6 -63 18
-58 50 19 354 162 354 166 0 3 -63 37 -141 75 -77 39 -152 77 -165 86 l-25 16
56 27 c96 48 125 107 125 264 l0 92 40 0 40 0 0 -175 c0 -169 1 -175 20 -175
11 0 23 -7 26 -15 5 -11 22 -15 70 -15 l64 0 0 188 0 188 40 -4 40 -4 0 -169
0 -169 25 0 c16 0 25 -6 25 -15 0 -13 24 -15 158 -16 l157 0 -183 -92 -183
-92 183 -83 c101 -45 186 -82 191 -82 4 0 7 26 7 59 l0 59 118 6 c587 35 1040
140 1082 252 32 83 -99 165 -370 232 -69 17 -145 35 -170 39 l-45 9 -13 64
c-28 143 -107 251 -212 291 -47 19 -78 22 -205 23 l-150 1 -3 -152 -3 -152
-82 5 c-45 3 -97 7 -114 10 l-33 5 -1 112 c-1 62 -4 126 -8 142 l-6 30 -80 0
-80 0 -3 -137 -3 -138 -39 0 -40 0 0 110 c0 67 -4 110 -10 110 -5 0 -10 14
-10 30 l0 30 -80 0 -80 0 0 -140 0 -140 -40 0 -40 0 0 110 c0 67 -4 110 -10
110 -5 0 -10 14 -10 30 l0 30 -80 0 -80 0 0 -140 0 -140 -105 0 -105 0 0 110
c0 67 -4 110 -10 110 -5 0 -10 14 -10 30 l0 30 -80 0 -80 0 0 -145 0 -145 -40
0 c-22 0 -40 5 -40 10 0 6 -53 10 -140 10 -133 0 -140 -1 -140 -20 0 -21 -11
-25 -102 -35 -66 -7 -71 -1 -39 51 35 57 86 88 155 92 55 3 66 1 109 -29 53
-35 60 -34 122 16 22 18 27 27 18 36 -6 6 -9 17 -7 24 8 20 -83 92 -142 115
-59 22 -174 26 -229 8z m229 -37 c41 -16 27 -23 -20 -10 -21 6 -64 9 -95 6
-147 -13 -261 -118 -293 -269 -11 -48 -26 -31 -20 20 13 101 80 199 169 244
69 36 179 39 259 9z m376 4 c0 -11 -11 -15 -40 -15 l-40 0 0 -109 c0 -63 -4
-112 -10 -116 -11 -7 -15 237 -3 248 3 4 26 7 50 7 32 0 43 -4 43 -15z m390 0
c0 -11 -11 -15 -40 -15 l-40 0 0 -110 c0 -67 -4 -110 -10 -110 -6 0 -10 48
-10 125 l0 125 50 0 c38 0 50 -4 50 -15z m260 0 c0 -11 -11 -15 -40 -15 l-40
0 0 -110 c0 -67 -4 -110 -10 -110 -6 0 -10 48 -10 125 l0 125 50 0 c38 0 50
-4 50 -15z m265 0 c0 -5 -19 -11 -42 -13 l-43 -3 0 -115 c0 -74 -4 -113 -10
-109 -11 7 -14 238 -3 249 11 10 98 3 98 -9z m618 -11 c54 -18 59 -29 6 -14
-18 6 -94 10 -166 10 l-133 0 0 -125 c0 -77 -4 -125 -10 -125 -12 0 -14 262
-2 275 13 13 253 -3 305 -21z m-11 -135 c23 -12 58 -89 58 -129 l0 -33 -47 7
c-27 4 -74 9 -105 13 l-58 6 0 72 c0 39 3 75 7 79 9 9 121 -3 145 -15z m107
-151 c1 -10 -3 -18 -9 -18 -5 0 -10 17 -9 38 0 30 2 33 9 17 5 -11 9 -28 9
-37z m-2046 35 c-7 -2 -21 -2 -30 0 -10 3 -4 5 12 5 17 0 24 -2 18 -5z m677
-68 c0 -38 -6 -78 -15 -94 -27 -54 -129 -72 -173 -31 -19 18 -22 31 -22 105
l0 85 105 0 105 0 0 -65z m50 -24 c0 -75 -3 -93 -23 -122 -12 -18 -34 -39 -47
-46 -32 -16 -98 -16 -128 0 -20 11 -17 13 31 13 100 0 147 54 147 172 0 41 4
72 10 72 6 0 10 -36 10 -89z m260 -70 c0 -96 -4 -162 -10 -166 -7 -4 -10 52
-10 159 0 104 4 166 10 166 6 0 10 -60 10 -159z m-698 57 c4 -113 23 -157 87
-204 70 -51 126 -74 197 -81 l64 -6 0 -48 0 -49 -48 0 c-68 0 -385 27 -538 45
-370 45 -644 120 -689 189 -29 43 -14 71 58 105 34 16 86 37 114 45 l53 15 6
-27 c21 -86 109 -184 212 -234 54 -27 77 -32 136 -32 47 -1 88 6 120 18 45 18
49 18 58 3 6 -12 23 -17 59 -17 l50 0 -3 185 -3 185 32 0 31 0 4 -92z m47 -10
c0 -67 -3 -96 -9 -83 -12 29 -12 185 0 185 6 0 10 -40 9 -102z m911 -59 c0
-104 -3 -158 -10 -154 -6 4 -10 68 -10 161 0 96 4 154 10 154 6 0 10 -60 10
-161z m283 145 l77 -7 0 -158 0 -159 25 0 c16 0 25 -6 25 -15 0 -13 21 -15
127 -15 165 0 226 16 295 79 49 44 98 125 98 164 0 22 18 22 114 -3 288 -76
333 -167 120 -241 -128 -44 -442 -89 -721 -105 l-123 -7 0 57 c0 31 5 56 10
56 11 0 13 75 4 133 l-7 37 -98 0 -99 0 0 95 0 95 38 0 c22 0 73 -3 115 -6z
m-1603 -49 c0 -31 3 -35 25 -35 14 0 25 -4 25 -10 0 -5 16 -10 36 -10 27 0 35
-4 32 -16 -9 -45 -132 -69 -201 -40 -42 17 -87 70 -87 101 0 25 7 28 95 38 75
9 75 10 75 -28z m50 15 c0 -11 -4 -20 -10 -20 -5 0 -10 9 -10 20 0 11 5 20 10
20 6 0 10 -9 10 -20z m1680 -126 c0 -94 -4 -143 -10 -139 -6 4 -10 63 -10 146
0 86 4 139 10 139 6 0 10 -55 10 -146z m236 120 c97 -9 104 -14 78 -61 -25
-45 -92 -83 -146 -83 l-38 0 0 81 c0 72 2 80 18 75 9 -3 49 -8 88 -12z m-2257
-64 c0 -10 -3 -8 -9 5 -12 27 -12 43 0 25 5 -8 9 -22 9 -30z m2411 28 c-1 -24
-37 -93 -61 -115 -13 -12 -37 -26 -52 -32 -36 -14 -147 -14 -147 -1 0 6 15 10
34 10 77 0 159 49 185 111 15 37 41 53 41 27z m-1962 -105 c-21 -26 -89 -53
-133 -53 -22 1 -57 8 -78 18 l-39 17 84 0 c71 0 88 3 116 24 18 13 38 35 45
50 l11 26 4 -33 c2 -18 -3 -40 -10 -49z m1462 -43 c0 -6 -35 -10 -85 -10 -50
0 -85 4 -85 10 0 6 35 10 85 10 50 0 85 -4 85 -10z"/>
<path d="M3496 1190 c-54 -60 -51 -97 14 -157 28 -26 47 -50 43 -54 -5 -4 -28
-11 -53 -16 -39 -7 -45 -12 -48 -36 -3 -26 -1 -27 40 -27 101 0 124 49 59 124
-23 26 -41 56 -41 66 0 11 14 34 30 52 l31 33 -7 -37 c-4 -23 -2 -38 4 -38 11
0 26 105 17 120 -14 22 -53 9 -89 -30z"/>
<path d="M3835 1073 c-7 -39 -40 -93 -56 -93 -5 0 -9 17 -9 38 0 41 -14 62
-41 62 -22 0 -27 -50 -17 -171 9 -114 14 -129 42 -129 30 0 46 37 45 98 -1 40
-2 43 -8 17 l-7 -30 -7 34 c-10 46 -9 59 3 41 8 -12 10 -9 10 11 0 14 9 34 20
44 20 18 20 17 20 -14 0 -35 22 -50 44 -32 7 6 19 32 26 56 17 59 30 66 30 16
0 -39 13 -61 25 -41 3 5 1 10 -4 10 -6 0 -11 17 -11 38 0 48 -8 57 -32 35 -17
-15 -18 -15 -18 5 0 18 -25 42 -43 42 -3 0 -8 -17 -12 -37z"/>
<path d="M3616 1068 c-11 -42 -6 -96 10 -112 19 -20 24 -20 52 0 25 17 30 36
8 28 -12 -4 -16 6 -18 48 -3 45 -6 53 -24 56 -15 2 -23 -4 -28 -20z"/>
<path d="M4015 1066 c-41 -18 -60 -59 -43 -94 25 -52 109 -31 159 39 32 45 18
44 -26 -1 -45 -46 -75 -52 -75 -16 0 13 3 31 6 40 7 19 30 21 37 4 3 -7 6 -3
6 8 1 17 -19 37 -32 34 -1 -1 -16 -7 -32 -14z"/>
</g>
</svg>
